/* XPM */
static char *result[] = {
/* columns rows colors chars-per-pixel */
"32 32 33 1 ",
"  c black",
". c #010000",
"X c #000100",
"o c #010100",
"O c #000001",
"+ c #010001",
"@ c #000101",
"# c #010101",
"$ c #FE0000",
"% c red",
"& c #FE0100",
"* c #FF0100",
"= c #FE0001",
"- c #FF0001",
"; c #FE0101",
": c #FF0101",
"> c #8C8080",
", c #8D8080",
"< c #8C8180",
"1 c #8D8180",
"2 c #8C8081",
"3 c #8D8081",
"4 c #8C8181",
"5 c #8D8181",
"6 c #FEFEFE",
"7 c #FFFEFE",
"8 c #FEFFFE",
"9 c #FFFFFE",
"0 c #FEFEFF",
"q c #FFFEFF",
"w c #FEFFFF",
"e c white",
"r c None",
/* pixels */
"rrrrrrrrrrrr#   XXo rrrrrrrrrrrr",
"rrrrrrrrrO#+-*=$-%&-X orrrrrrrrr",
"rrrrrrr o=&*-&;&;&$*-:=oorrrrrrr",
"rrrrrr.&%%:;&=:=-:**%%-;- rrrrrr",
"rrrrrX-:;&$**%-&:-;&--;*&=orrrrr",
"rrrro:*%-::%-:*-;*-**&=-*%: rrrr",
"rrr.&&%:;-:%*%**:&%-:%%-:&$:Xrrr",
"rr :&*-%;%%=%-%$-&$*:$:%$%=-&@rr",
"rr :*;-&$$&*%%$*&-%%**&%$$&-$orr",
"r %-%%%&*%&%*--&%%&-$=$&=&%&%%@r",
"rO==*%-*%=%-:$$$*-%:-**:$&&-%&Xr",
"r+%$::$-$-%:$%,121-*=%%-&**=&:+r",
"+&-:%$%=:;$%5454>554:%=-=-%;%-%O",
" -%$***=$%%=3,<79441===%=&%*=$$@",
"+&*;$$$-*:*45,eeqe11,*--**%;:--X",
" 1>,554,14>,58eq0e8523215<1<544 ",
".4,23335454<,qee9ee3<421,,,51,5X",
"+69899wew974129qwe343wweqw6wq77 ",
"Xqeq909ewwqw,<187543ewee0eq06qe ",
" 7qe0qqee9794><<>515e9qq8788w87 ",
"rXww6qeq7768e75<51qee0q9607qewXr",
"r 099767qwqeqwq09987e70980799qor",
"rOq8q79q6977e8e8e6q7e7qww7qee9Or",
"rrOq787e9qqeqe9e87e77ew7eqq88@rr",
"rr@q9qeqeewe7e08weee7eeqe9e98+rr",
"rrr+79w98ee7ew67e888qq86w8qq@rrr",
"rrrrO9e77wq9q877eqewqewq98eorrrr",
"rrrrr+w0w09ewee8e8qeeeew9e rrrrr",
"rrrrrr@e79ww9q099ewq9qq0e#rrrrrr",
"rrrrrrrX.w769w8000e69ee.+rrrrrrr",
"rrrrrrrrr++.89989e9w +orrrrrrrrr",
"rrrrrrrrrrrrOX@oX@.orrrrrrrrrrrr"
};
