/* XPM */
static char *result[] = {
/* columns rows colors chars-per-pixel */
"32 32 31 1 ",
"  c #8C0808",
". c #8D0808",
"X c #8C0908",
"o c #8D0908",
"O c #8C0809",
"+ c #8D0809",
"@ c #8C0909",
"# c #8D0909",
"$ c #FA0000",
"% c #FB0000",
"& c #FA0100",
"* c #FB0100",
"= c #FA0001",
"- c #FB0001",
"; c #FA0101",
": c #FB0101",
"> c #A3A400",
", c #A2A500",
"< c #A3A500",
"1 c #A2A401",
"2 c #A2A501",
"3 c #A3A501",
"4 c #FAFE00",
"5 c #FBFE00",
"6 c #FAFF00",
"7 c #FBFF00",
"8 c #FAFE01",
"9 c #FBFE01",
"0 c #FAFF01",
"q c #FBFF01",
"w c None",
/* pixels */
"wwwwwwwwwwwwwwXo-=wwwwwwwwwwwwww",
"wwwwwwwwwwwww*% +-;wwwwwwwwwwwww",
"wwwwwwwwwwww$-&$#o*%wwwwwwwwwwww",
"wwwwwwwwwww--%-=$o#-$wwwwwwwwwww",
"wwwwwwwwww%:-%-:*-++%$wwwwwwwwww",
"wwwwwwwwww:%%$%$-*$+X$%wwwwwwwww",
"wwwwwwwwww-%=%$*%=%$oX<7wwwwwwww",
"wwwwwwwwwww%=%=-*%%%-##45wwwwwww",
"wwwwwwwwwwww**%%*=%%%=+.qqwwwwww",
"wwwwwwwwwwwww$%-&$=*o=%+@9$wwwww",
"wwwwwwwwwwwwww%%%*;#@---oO-%wwww",
"wwwwwwwwwwwwwww**=#+*%%%:@o&:www",
"wwwwwwwwwwwwwwww*%$&=*:-%&o#-$ww",
"wwwwwwwwwwwwwww,7:%--$%*%*%#@:*w",
"wwwwwwwwwwwwww1765-*;%-*=-%$@+-*",
"wwwwwwwwwwwww>q6q75%-=$%-;%&%@#@",
"wwwwwwwwwwww,775575w:=:%*%::+-$%",
"wwwwwwwwwww<654645www:-%-*%+:=&w",
"wwwwwwwwww3676476wwwww*-=*#%**ww",
"wwwwwwwww2569q97wwwwwww&%#%&:www",
"wwwwwwww277q06qwwwwwwwww@*&-wwww",
"wwwwwww<7777q7wwwwwwwwwwwwwwwwww",
"wwwwww<8q94q7wwwwwwwwwwwwwwwwwww",
"wwwww<q77790wwwwwwwwwwwwwwwwwwww",
"wwww3757807wwwwwwwwwwwwwwwwwwwww",
"www<q7qq05wwwwwwwwwwwwwwwwwwwwww",
"ww<749565wwwwwwwwwwwwwwwwwwwwwww",
"w15556q6wwwwwwwwwwwwwwwwwwwwwwww",
"3570765wwwwwwwwwwwwwwwwwwwwwwwww",
"67466qwwwwwwwwwwwwwwwwwwwwwwwwww",
"w9757wwwwwwwwwwwwwwwwwwwwwwwwwww",
"ww77wwwwwwwwwwwwwwwwwwwwwwwwwwww"
};
