/* XPM */
static char *_8378d7eb11141ace0110de3c27ded85oeh313azzhvg4eUd[] = {
/* columns rows colors chars-per-pixel */
"48 64 21 1 ",
"  c None",
". c #181020",
"X c #181120",
"o c #191120",
"O c #181121",
"+ c #191121",
"@ c #7E53A8",
"# c #7F53A8",
"$ c #7E52A9",
"% c #7E53A9",
"& c #7F53A9",
"* c #A86DE4",
"= c #A96DE4",
"- c #A96CE5",
"; c #A86DE5",
": c #A96DE5",
"> c #B46DFA",
", c #B56DFA",
"< c #B46CFB",
"1 c #B46DFB",
"2 c #B56DFB",
/* pixels */
"XXXXXXXXXXXXXXXXOOXOOXXXXXXXXXXXX               ",
"11111111>>>>1,1111>>>>1111111111X               ",
"1111>1>>>>>>>111>>>>>11111111111X               ",
"XXXXXXOOXXXXXXXXXOOoXXXXXXXXoo11X               ",
"--:%%%:::%%%==-#%%:::%%%--:%%o11X               ",
"--:%%%:::%%%==-#%%:::%%%:::%%o11X               ",
"-::%%%:::%%&---%%%:::%%%:::&%o>1X               ",
"-::%%%:::%%%:--%%%:::%%%:::&%o11X               ",
":-:@%%:::%%%:::%%%:::%%%:--%&X11X               ",
":::%%%:::%%%:::%%%:::%%%::-%#X11X               ",
":-:%%#:::%%%:::%%%:::%%%::-%%X11X               ",
":--%%%:::%%%:::%%%:::%%%::-%&X11X               ",
":-*%%%::-%%%:::%%%:::%%%:::%%X11X               ",
"*::&%@:-:%%%:::%%%:::%%%:::%%X11X               ",
"*::&%@:-:&%%:::%%%:::%%%:::%%X11X               ",
":::%%%:::%%@:-:@%%:::%%%:::%%X11X               ",
":::#%@=-:%%%*::%%%:::%%%:-:&&O11X               ",
":::%%&:-:%%@:::%%%:::%%%:::&%O11X               ",
":-:&%&:-:%%%::*&%@:::%%%:::&%O11X               ",
":::%%%::-%%%:::&%%:::%%%:::&%O11X               ",
":::%%%-::%%%*::%%%:::%%@-::&#X11X               ",
"*::@%&:::%%%:::%%%:::@%%--:&#X12X               ",
":::#%%*-:%%%*::%%%:-:%%%---%%X11X               ",
":::%%%:--%%%:-:@%@:::&%&---%%X11X               ",
":::@%%--:%%%:::%%#::-%%%-::%#X11X               ",
"::*%%%--:%%%:::%%%:--%%%--:%#X11X               ",
":-*&%&---%%%::-%%&::;%##;-;%&X11X               ",
"*::%&&--:&%@::-@%&*-;###:::%&X11X               ",
"ooXXXXXXooOOXXOOooXXXXXXOOXXXX11X               ",
"1>111111>>1>>>>>>>11111111111111X               ",
"1>111111111>1>>>1111111111111111X               ",
"OOXXXXXXoOOOOOOOXXXXXXXXXXXXXXXXX               ",
"                                                ",
"                                                ",
"                                                ",
"                                                ",
"                                                ",
"                                                ",
"                                                ",
"                                                ",
"                                                ",
"                                                ",
"                                                ",
"                                                ",
"                                                ",
"                                                ",
"                                                ",
"                                                ",
"                                                ",
"                                                ",
"                                                ",
"                                                ",
"                                                ",
"                                                ",
"                                                ",
"                                                ",
"                                                ",
"                                                ",
"                                                ",
"                                                ",
"                                                ",
"                                                ",
"                                                ",
"                                                "
};
