/* XPM */
static char *_2a090ac37494f67e659cc485bee8dfc3SVP9xUKdSpCfWCp[] = {
/* columns rows colors chars-per-pixel */
"48 64 25 1 ",
"  c None",
". c #181020",
"X c #181120",
"o c #191120",
"O c #181121",
"+ c #191121",
"@ c #7E53A8",
"# c #7F53A8",
"$ c #7E52A9",
"% c #7E53A9",
"& c #7F53A9",
"* c #A44FFA",
"= c #A54FFA",
"- c #A54EFB",
"; c #A44FFB",
": c #A54FFB",
"> c #A86DE4",
", c #A96DE4",
"< c #A96CE5",
"1 c #A86DE5",
"2 c #A96DE5",
"3 c #B46DFA",
"4 c #B46CFB",
"5 c #B46DFB",
"6 c #B56DFB",
/* pixels */
"XXXX++XXXXXXXoXXXXXXXXoXXXXXOOXXX               ",
"55554435555555555555555555555533X               ",
"55554444555555555555555555553355X               ",
"XXXXXXXXooXXXXooXXXXXXXXoXXXOO56X               ",
":::--=::::=-====::-=::::--:::X44X               ",
":::::=:::::-==::::--::::--:=:X44X               ",
":::::::::=:-:::::;:::-::==:::X44X               ",
"111:::::=;:::::::::::;:;*-:::X44X               ",
"111;::::::-=::::::::;:::::::=+55X               ",
"111&&&::::--:::::::::::::::::+45X               ",
"111&&&XXXXXXXXXXXXXX.XXXXXXXXX55X               ",
"111$&&111XXXXXXXXXXXXXXXXXXXXX55X               ",
"<<<&&&111&&&XXXXXXXXXXX+XXXXXX55X               ",
"<<1&&&111&&&XXXXXXXX+XXXXXXXXX55X               ",
"<<1&&&111&&&<11XXXX+XXXXXXXXXX65X               ",
"2<1&&&111&&&<11&&&XXXXXXXXXXX+56X               ",
"222&&&111%%&121&&&XXXXXXXXXXXX66X               ",
"222&&&111%%&221&@@111+XXXXXXXX64X               ",
"2<2&&&111%@@221&%%111&%&XXXXXX44X               ",
"222&&&<11%@@222&%%111&&&XXXXXX44X               ",
"111&&&112&&@111&&&111&&&11<oXX55X               ",
"111&&&112&&@<11&%&111&@&11<&&X55X               ",
"1<1&&&112&&&,<1&%%111%@@111$&X55X               ",
",<1&&&1<2&&&<<1&%%111%%%111$&X55X               ",
"222#&&11,@&&11<&%&111&&&111&&X55X               ",
"22,&&&111&&&11<&&%111&@@111&&o55X               ",
"22,&&&111@&@111&&&1<1&&&111&&X55X               ",
"222&&&111&$@111&&&<<1@&&111&&o55X               ",
"XoXXXXoXXXXXXXXXXXXXXXXXXXOOXX55X               ",
"55555555555555556455555544555555X               ",
"55555555555555556565555544635555X               ",
"XXoXXXXXXXXXXXXX++OXXXXXXX+OXXXXX               ",
"                                                ",
"                                                ",
"                                                ",
"                                                ",
"                                                ",
"                                                ",
"                                                ",
"                                                ",
"                                                ",
"                                                ",
"                                                ",
"                                                ",
"                                                ",
"                                                ",
"                                                ",
"                                                ",
"                                                ",
"                                                ",
"                                                ",
"                                                ",
"                                                ",
"                                                ",
"                                                ",
"                                                ",
"                                                ",
"                                                ",
"                                                ",
"                                                ",
"                                                ",
"                                                ",
"                                                ",
"                                                "
};
