/* XPM */
static char *_f1fc00efe774226bd05c83e7a2e9fba9oZuKNCEMN4w2ZDc[] = {
/* columns rows colors chars-per-pixel */
"48 64 9 1 ",
"  c None",
". c #498D04",
"X c #498C05",
"o c #488D05",
"O c #498D05",
"+ c #0FCC1C",
"@ c #0ECC1D",
"# c #0FCC1D",
"$ c #0FCD1D",
/* pixels */
"                                                ",
"      O#O               O #                     ",
"      O#O#O             O###                    ",
"#    #O#O#O       # O   O##O #                  ",
"# ####O#O+XO#    ## O# OO##O #O                 ",
"#O##O#O#O##O#  O ##OO# O###OO#O                 ",
"####O#O#O##O#O O ##O##OO####O#O                 ",
" ##OO#OOO#OO#O#.##OO##OOOOO#O#O                 ",
" ##Oo#OO##O##X#O##oO##OO##O#O#O                 ",
" ##OO#.O#OO#OO#O##OO##OO#OO#O#O                 ",
" ##.O#OO#O##OO#O##.O#OOO#O##O#O                 ",
" ###O#.O#O#OOO#O##.O##OO#O#OO#O                 ",
" #O#O##O#O#O+O#OO##OO#OO#O#.##O                 ",
" #O#OO#O#O#O#O#OO##OO#OO#O#O##O                 ",
" #O#OO#O#O#O#O#OO##OO#OO#OOO##O                 ",
" #O#OO#O#O#O#O#OOO+#o#OO#OOO##O                 ",
" #O#OO#O#O#O#O#OOO##O#XO#OOO###                 ",
" #O#OO#O#O#O#OO#OO##o#Xo#O#OOO#                 ",
" #O##O#O#O#O##O#Oo##OO#O#O#OOO#                 ",
" #OO#O#O#O#O#OO#OO#OOO###O##OO#                 ",
" #OO#O#O#O#O#O#OOO#OO+#O#OO#O##                 ",
" #OO#O#O#O#O#o#.O#OOO#XO#OO#O##                 ",
" #OO#O#O#O#O.O#O##OOO#OO#OO#O#+                 ",
" #OO#O#O#O#OO##O##OO##OO#OO#O##                 ",
" #OO#O#O#O#O.##O##oO#OOO#OO#O##                 ",
" #OO#O#O#O#OOO#O##O##OOO#OO#O##                 ",
" #O#OO#O#O#o#O#O##O##OOO+OO#O#O                 ",
" #O#OO#O#O#O#O#O##.O#OO##OO#O#O                 ",
" #O#OO#O#O#O#O#.##OO#OO##Oo#O#O                 ",
" #O#OO#O#O#O+O#O#OO##OO##OO#O#O                 ",
" #O#OO#O#.#O#O#O#OO#oOO##OO#O##                 ",
" #O#OO#O#O#O#O#O#oO#OOO#+O##O##                 ",
"                                                ",
"                                                ",
"                                                ",
"                                                ",
"                                                ",
"                                                ",
"                                                ",
"                                                ",
"                                                ",
"                                                ",
"                                                ",
"                                                ",
"                                                ",
"                                                ",
"                                                ",
"                                                ",
"                                                ",
"                                                ",
"                                                ",
"                                                ",
"                                                ",
"                                                ",
"                                                ",
"                                                ",
"                                                ",
"                                                ",
"                                                ",
"                                                ",
"                                                ",
"                                                ",
"                                                ",
"                                                "
};
