/* XPM */
static char *result[] = {
/* columns rows colors chars-per-pixel */
"32 32 17 1 ",
"  c #624A4C",
". c #634A4C",
"X c #624B4C",
"o c #634B4C",
"O c #624A4D",
"+ c #634A4D",
"@ c #624B4D",
"# c #634B4D",
"$ c #94686A",
"% c #95686A",
"& c #94696A",
"* c #95696A",
"= c #94686B",
"- c #95686B",
"; c #94696B",
": c #95696B",
"> c None",
/* pixels */
">>>>>>>>>>>>>>>>>>>>>>>>>>>>>>>>",
">>>>>>>>>>>>>>>>>>>>>>>>>>>>>>>>",
">>>>>>>>>>>>>>>>>>>>>>>>>>>>>>>>",
">>>>>>>>>>>>>>>>>>>>>>>>>>>>>>>>",
">>>>>>>>>>>>>>>>>>>>>>>>>>>>>>>>",
">>>>>>>>>>>>>>>>>>>>>>>>>>>>>>>>",
">>>>>>>>>>>>>>>>>>>>>>>>>>>>>>>>",
">>>>>>>>>>>>>>>>>>>>>>>>>>>>>>>>",
">>>>>>>>>>>>>>>>>>>>>>>>>>>>>>>>",
">>>>>>>>>>>>>>>>>>>>>>>>>>>>>>>>",
">>>>>>>>>>>>>>>>>>>>>>>>>>>>>>>>",
">>>>>>>>>>>>>>>>>>>>>>>>>>>>>>>>",
">>>>>>>>>>>>>>>>>>>>>>>>>>>>>>>>",
">>>>>>>>>>>>>>>>>>>>>>>>>>>>>>>>",
">>>>>>>>>>>>>>>>&$*%>>>>>>>>>>>>",
">>>>>>>>>>>>>-%$;&$;;$$>>>>>>>>>",
">>>>>>>>>;=*$;*-*;;:$$$&*>>>>>>>",
">>>>>>>$&#*-%*$%%%$=$:%;%->>>>>>",
">>>>>:%$-&.*%&$&$&$;=$;&:&+;>>>>",
">>>>---%=$*o$&;-=%*;*-$## %$%>>>",
">>>-&%-==&$*OOO=$&X o.#**&;-&>>>",
">>=%--%=$&.o-$:#XO&;%O&=-:;&$&>>",
">>:$&$$$# :$===$$$-=*:.&&&&$$#>>",
">-%&$X##*%$&:&-&=:$$;% -&&-:o-*>",
">$$.o*%&=$*%-=-:=::&*%$X#.$@#%&>",
">+X=%-%$$&-;%*$*;$$*;$ ;=+ $:=;>",
">:%;=-:$$=;%%$%$-:;-#o&$$$.=$$&>",
">*%*$;=-&*$%$&=oOX.O-=&$$%o-*$=>",
">*$*;=%$$;%:oo.%-:%=$::;%&X:%%$>",
">$%:$-&&-$;@$%%=$$&&=*=-%;X$;==>",
">$=$$-$-%$;@$;===::&:$;%$@;&$$;>",
">&:%$-$&*$.$-&&$$$-&&:*;%.$&$-&>"
};
