/* XPM */
static char *result[] = {
/* columns rows colors chars-per-pixel */
"32 32 47 1 ",
"  c black",
". c #010000",
"X c #000100",
"o c #010100",
"O c #000001",
"+ c #010001",
"@ c #000101",
"# c #010101",
"$ c #2C2828",
"% c #2D2828",
"& c #2C2928",
"* c #2C2929",
"= c #2D2929",
"- c gray37",
"; c #5F5E5E",
": c #5E5F5E",
"> c #5E5E5F",
", c #5E5F5F",
"< c #605E5E",
"1 c #615E5E",
"2 c #605F5E",
"3 c #615F5E",
"4 c #605E5F",
"5 c #615E5F",
"6 c #605F5F",
"7 c #615F5F",
"8 c #D4860A",
"9 c #D5860A",
"0 c #D4870A",
"q c #D5870A",
"w c #D4860B",
"e c #D5860B",
"r c #D4870B",
"t c #D5870B",
"y c #D93284",
"u c #D83384",
"i c #D83285",
"p c #D93285",
"a c #0288E0",
"s c #0388E0",
"d c #0289E0",
"f c #0389E0",
"g c #0288E1",
"h c #0388E1",
"j c #0289E1",
"k c #0389E1",
"l c None",
/* pixels */
"llllllllllllllllllllllllllllllll",
"llllllllllllllllllllllllllllllll",
"llllllllllllllllllllllllllllllll",
"llllllllll@+.X# o @@Olllllllllll",
"lllllllll.rw009rq98wt.llllllllll",
"llllllll@8088q9tre8erqolllllllll",
"lllllll#te8q9rrw90w0e80.llllllll",
"llllll.9rq9teqq8wetq0q99 lllllll",
"llllll er989teqttqewr9e8@lllllll",
"llllll+8ww8008q8e8q0rq8r#lllllll",
"llllll@ttq9t099rewe0r80w+>llllll",
"llllll@8r80088r9r900et0t@-llllll",
"llllll q8qewq9qt8w80e>;,:,llllll",
"llllll.8qr9w8eewte9wtrerX,llllll",
"llllllo909tw99eqeqre9wtr >llllll",
"llllllO0wrw0w90we0q98r0q#lllllll",
"llllll@r90908e80eww0trt9oyllllll",
"llllll t88qerrq0trw0e00wOpllllll",
"llllll teew00880eqww09qr+ullllll",
"llllllorerdgddhgjjdak98r.illllll",
"llllll.etd0etqt880w80dqwXlllllll",
"llllll#8d8et0t99tt8et0h8@lllllll",
"llllll+8sq99w8r908ww9qfq lllllll",
"llllll a00q988rrtqr8erea lllllll",
"llllllOew8e88080wwqr98ww lllllll",
"lllllloewweqw88w89qr80wq#lllllll",
"llllll#0re0t99r99tttwt98@lllllll",
"lll<67.w0tqer990089rt00r+54<llll",
"375131X0eqww0t00qeqq0rreo3&<3666",
"6=1<*5.kahadjkfshsjgdhhg <<51%43",
"452%33+dgfjsakfaakhjfhkg#6666*$2",
"643374@fajjagdjkddkadhgh.3&33<24"
};
