/* XPM */
static char *_6d2c7df9ff64984db038f4b5df89d37OsrUJnWvNiNJSgDB[] = {
/* columns rows colors chars-per-pixel */
"32 32 47 1 ",
"  c None",
". c black",
"X c #010000",
"o c #000100",
"O c #010100",
"+ c #000001",
"@ c #010001",
"# c #000101",
"$ c #010101",
"% c #2C2828",
"& c #2D2828",
"* c #2C2928",
"= c #2D2829",
"- c #2C2929",
"; c #2D2929",
": c gray37",
"> c #5F5E5E",
", c #5E5F5E",
"< c #5E5E5F",
"1 c #5F5F5F",
"2 c #605E5E",
"3 c #615E5E",
"4 c #605F5E",
"5 c #605E5F",
"6 c #615E5F",
"7 c #605F5F",
"8 c #615F5F",
"9 c #D4860A",
"0 c #D5860A",
"q c #D4870A",
"w c #D5870A",
"e c #D4860B",
"r c #D5860B",
"t c #D4870B",
"y c #D5870B",
"u c #D93284",
"i c #D93384",
"p c #D93285",
"a c #D93385",
"s c #0288E0",
"d c #0388E0",
"f c #0289E0",
"g c #0389E0",
"h c #0288E1",
"j c #0388E1",
"k c #0289E1",
"l c #0389E1",
/* pixels */
"          @@@@@@@@@@@           ",
"         @qwwqewwweqe@          ",
"        @weyqqwwyyyyew@         ",
"       @qeeewwqweqqeeww@        ",
"      @wwwweeeweqqyweeee@       ",
"      @wwywweyeeqeyyyyee@       ",
"      @qeeweyywwqeeewwwe@       ",
"     ,@qwewweyweweqewwww@       ",
"     ,@ewewewweqeeeeqwwq@       ",
"     <,,5,wewwweqwwwewew@       ",
"     ,@eweewwweeeewwewyw@       ",
"     ,@weeeeyeewyyewweyyo       ",
"      @wweeweeqytqqeyqewo       ",
"     i@eewwweweweqwwqqyy@       ",
"     i@qewwewewwwqwwyyqq@       ",
"     i@qeweweeeeewweyqqqo       ",
"     i@ywegghhhhjjhhhqeq@       ",
"      @ywgewweweweewqjee@       ",
"      oqjweeeweeeqeeewhe@       ",
"      oyheeweeqwqwwwwwje@       ",
"      @gwweeeewwqqwqewwj@       ",
"      @qweeeeeweeqewweww@       ",
"      @qwqeqewqqqeweewww@       ",
"      @eweqqwewweqqwwewe@       ",
"      @qwwweeewwqwqqwqqq@       ",
"      @qeeweqewe9qqqeqwq@       ",
"      @ghghghghjjjhgjhgh@       ",
"      @hghhhgghgssjjjjgg@       ",
"      @hgggghghhjsshgggh@       ",
"   8*8@gfhghfhghjsjghghh@8888   ",
" 88888@hfgffhhgghhhhhgdh@88&88* ",
"8%88*,@ghhhhfhghhhggghgh@,*8,888"
};
