/* XPM */
static char *result[] = {
/* columns rows colors chars-per-pixel */
"32 32 45 1 ",
"  c black",
". c #010000",
"X c #000100",
"o c #010100",
"O c #000001",
"+ c #010001",
"@ c #000101",
"# c #010101",
"$ c #2C2828",
"% c #2D2828",
"& c #2C2928",
"* c #2D2928",
"= c #2C2829",
"- c #2D2829",
"; c #2D2929",
": c #605E5E",
"> c #615E5E",
", c #605F5E",
"< c #615F5E",
"1 c #605E5F",
"2 c #615E5F",
"3 c #605F5F",
"4 c #615F5F",
"5 c #D4860A",
"6 c #D5860A",
"7 c #D4870A",
"8 c #D5870A",
"9 c #D4860B",
"0 c #D5860B",
"q c #D4870B",
"w c #D5870B",
"e c #484CF0",
"r c #484DF0",
"t c #484CF1",
"y c #494CF1",
"u c #494DF1",
"i c #0288E0",
"p c #0388E0",
"a c #0289E0",
"s c #0389E0",
"d c #0288E1",
"f c #0388E1",
"g c #0289E1",
"h c #0389E1",
"j c None",
/* pixels */
"jjjjjjjjjjjjjjjjjjjjjjjjjjjjjjjj",
"jjjjjjjjjjjjjjjjjjjjjjjjjjjjjjjj",
"jjjjjjjjjjjjjjjjjjjjjjjjjjjjjjjj",
"jjjjjjjjjj. X@O  O.o+jjjjjjjjjjj",
"jjjjjjjjjX008wqw90q57#jjjjjjjjjj",
"jjjjjjjj.q8qw8q80889wq.jjjjjjjjj",
"jjjjjjjow968907759q9889ojjjjjjjj",
"jjjjjj 686066wqq9079q66q jjjjjjj",
"jjjjjj 566q6w0706q0qwq6q jjjjjjj",
"jjjjjj+9wwq0wq8w76q6877qOjjjjjjj",
"jjjjjj@0009w576075099579#jjjjjjj",
"jjjjjj.977qw7q5w0q67657qojjjjjjj",
"jjjjjjo66887w8w7767ww86qojjjjjjj",
"jjjjjj@765w9088q0979q059+jjjjjjj",
"jjjjjj#0505q9q8978598060Xjjjjjjj",
"jjjjjj+887qw596597w67q59+jjjjjjj",
"jjjjjjo0895588996q9q0967@jjjjjjj",
"jjjjjj.6w5w6585q6w68987q jjjjjjj",
"jjjjjjX55w79w776w09q9q67@jjjjjjj",
"jjjjjj.ffqq68wqq9w55q8ip@jjjjjjj",
"jjjjjj+07a9607707q870p78Ojjjjjjj",
"jjjjjjX56dq8069wqqq90p60ojjjjjjj",
"jjjjjjo6wd7w0q85670w9fq0+jjjjjjj",
"jjjjjj@60g67q7q780w0wh0w@jjjjjjj",
"jjjjjj w8g9909q570670p76@jjjjjjj",
"jjjjjj@70aw9w67859908d56@jjjjjjj",
"jjjjjj+89d7005qw7q6w9gw6 jjjjjjj",
"jjj:1<.59fw67q0955905h99o<4>jjjj",
">1,3:>@adsdhsigiiddishah.<;:4:1>",
":-32-,#pfapfifgisggsaaif.<414*<3",
"1<<&,>OiiahgfgdffrryepadX:,:<%$3",
"224<2<+hspgghphfpurtrppdX4=42,41"
};
