/* XPM */
static char *result[] = {
/* columns rows colors chars-per-pixel */
"32 32 43 1 ",
"  c black",
". c #010000",
"X c #000100",
"o c #010100",
"O c #000001",
"+ c #010001",
"@ c #000101",
"# c #010101",
"$ c #2D2828",
"% c #2C2928",
"& c #2D2829",
"* c gray37",
"= c #5F5E5E",
"- c #5E5F5E",
"; c #5E5E5F",
": c #5E5F5F",
"> c #605E5E",
", c #615E5E",
"< c #605F5E",
"1 c #615F5E",
"2 c #605E5F",
"3 c #615E5F",
"4 c #605F5F",
"5 c #615F5F",
"6 c #D4860A",
"7 c #D5860A",
"8 c #D4870A",
"9 c #D5870A",
"0 c #D4860B",
"q c #D5860B",
"w c #D4870B",
"e c #D5870B",
"r c #D83285",
"t c #D83385",
"y c #0288E0",
"u c #0388E0",
"i c #0289E0",
"p c #0389E0",
"a c #0288E1",
"s c #0388E1",
"d c #0289E1",
"f c #0389E1",
"g c None",
/* pixels */
"ggggggggggO OXX@#oO+Xggggggggggg",
"gggggggggO9qe60qe9870ogggggggggg",
"gggggggg 797e69w09w96wOggggggggg",
"ggggggg.079e8e08080680eOgggggggg",
"ggggggO67e6q68qe79e60686oggggggg",
"gggggg@q9we977qwe79wq9e7+ggggggg",
"ggggggo9qw009w7q709qwqe8+ggggggg",
"gggggg@eqewewqq0wwqwee90X=gggggg",
"gggggg@9wwe8we97096w78e7@-gggggg",
"gggggg#qeq0wwe8w8w96w;:=**gggggg",
"gggggg#7we08w07we8e9q99q#;gggggg",
"ggggggXew86887986086q806 ;gggggg",
"ggggggX09q9qw86708680ww7.ggggggg",
"gggggg+660w0w8w89ew67e87Xtgggggg",
"ggggggoww6w6e09qww9q9wqq+rgggggg",
"gggggg w6ee6900q6qqe0wqw rgggggg",
"ggggggX790suysusdssffw08 rgggggg",
"gggggg#w0aw9979w88w6ws79.ggggggg",
"gggggg@8y8e0e686e97e9ea0@ggggggg",
"ggggggowu8eweq99w776e9uqOggggggg",
"ggggggXy98eq8qq97wq6wwed@ggggggg",
"ggggggO8e9w7w9w9q8w96ee0Oggggggg",
"gggggg 07ww099e8099qq09eoggggggg",
"ggggggo7ww79e00qq8we9w0eXggggggg",
"ggggggoww86q0968909qe87q ggggggg",
"gggggg.ew996w8796099q607Xggggggg",
"gggggg#fpiidafufufyuyiid.ggggggg",
"gggggg@ddufayuaifussuaps#ggggggg",
"gggggg.yussyfsuufypfyuad+ggggggg",
"ggg5%> assffuipassuaydaf <1>,ggg",
"g<32,3XsysdspypasayadpfuO>4%<5%g",
">$35&4.sfufsdsuyaysafsdaX3$2>231"
};
