/* XPM */
static char *_24cf798a4724cbaa437e11f96a2b913GxktrQdSAqzbgXt4[] = {
/* columns rows colors chars-per-pixel */
"32 32 48 1 ",
"  c None",
". c black",
"X c #010000",
"o c #000100",
"O c #010100",
"+ c #000001",
"@ c #010001",
"# c #000101",
"$ c #010101",
"% c #2D2828",
"& c #2D2928",
"* c #2C2829",
"= c #2D2829",
"- c #2C2929",
"; c #2D2929",
": c gray37",
"> c #5F5E5E",
", c #5E5F5E",
"< c #5F5F5E",
"1 c #5E5F5F",
"2 c #5F5F5F",
"3 c #605E5E",
"4 c #615E5E",
"5 c #605F5E",
"6 c #615F5E",
"7 c #605E5F",
"8 c #615E5F",
"9 c #605F5F",
"0 c #615F5F",
"q c #D4860A",
"w c #D5860A",
"e c #D4870A",
"r c #D5870A",
"t c #D4860B",
"y c #D5860B",
"u c #D4870B",
"i c #D5870B",
"p c #D83285",
"a c #D83385",
"s c #D93385",
"d c #0288E0",
"f c #0388E0",
"g c #0289E0",
"h c #0389E0",
"j c #0288E1",
"k c #0388E1",
"l c #0289E1",
"z c #0389E1",
/* pixels */
"                                ",
"                                ",
"                                ",
"          ...$$$$.$..           ",
"         .yeeeeeewyee$          ",
"        .eeyeeeuyeeeiw.         ",
"       .yeyyeyuueyeyyyy.        ",
"      .eeeyeeyyeeyyyyeue.       ",
"      .yyeeyyuuewwrryyey$       ",
"      .eyeuyuyeeuewwuyyy$       ",
"     2.uyeueeyyywwwruuye$       ",
"     2.yyeyeuyeyuywuuuee.       ",
"     902,2eyyeyyeeiwyyue$       ",
"     ,.yyeeeyyeeiywiyyee$       ",
"     ,.eyyueyyeyuuyyyyie.       ",
"      .eyeuyyuyeiruywwie.       ",
"     s.reeuyeeeeieiiuuee.       ",
"     s$uiuueeweeieeyyuee.       ",
"     s.ueiuewwuueeyeyyye.       ",
"     s$uwijkkkkkkkkkkeye.       ",
"      .uekueeyueeeeeekue.       ",
"      .ukyeyeeuuyeeyyejy$       ",
"      .ujyyueyyyeeyeyeky.       ",
"      .jyyeyeyyyyeeyyeek.       ",
"      .uewewwweeeeuyyyew$       ",
"      $eweewwweeeuyiuwiw.       ",
"      $weweewweeyeeeuwww$       ",
"   944$uewweeeyeeerrwewe.000    ",
"698649.weeeeeeeueeeeeuee.8;80000",
"4&99;8.khjkkkjjhkkkkkhhh.,880;80",
"889&98$hhfjhfkjjhhkkhhhh.9888%;8",
"869999.kkjhjkjhhjjjjhhhk.9;8,8,8"
};
