/* XPM */
static char *_97480cb03414bf4f151c0ef464fe7c1iNkMJo3QRw4vxWjD[] = {
/* columns rows colors chars-per-pixel */
"32 32 74 1 ",
"  c None",
". c black",
"X c #010000",
"o c #000100",
"O c #010100",
"+ c #000001",
"@ c #010001",
"# c #000101",
"$ c #010101",
"% c #2C2828",
"& c #2C2928",
"* c #2D2928",
"= c #2D2829",
"- c #2C2929",
"; c #2D2929",
": c #4C4A4C",
"> c #4D4A4C",
", c #4C4B4C",
"< c #4C4A4D",
"1 c #4D4A4D",
"2 c #4C4B4D",
"3 c gray37",
"4 c #5F5E5E",
"5 c #5E5F5E",
"6 c #5F5F5E",
"7 c #5E5E5F",
"8 c #5F5E5F",
"9 c #5E5F5F",
"0 c #5F5F5F",
"q c #605E5E",
"w c #615E5E",
"e c #605F5E",
"r c #615F5E",
"t c #605E5F",
"y c #615E5F",
"u c #605F5F",
"i c #615F5F",
"p c #64645E",
"a c #64655E",
"s c #65655E",
"d c #64645F",
"f c #65645F",
"g c #64655F",
"h c #65655F",
"j c #FE0000",
"k c red",
"l c #FE0101",
"z c #FF0101",
"x c #D4860A",
"c c #D5860A",
"v c #D4870A",
"b c #D5870A",
"n c #D4860B",
"m c #D5860B",
"M c #D4870B",
"N c #D5870B",
"B c #D83284",
"V c #D93284",
"C c #D83384",
"Z c #D93384",
"A c #D83285",
"S c #D93285",
"D c #D83385",
"F c #D93385",
"G c #0288E0",
"H c #0388E0",
"J c #0289E0",
"K c #0389E0",
"L c #0288E1",
"P c #0388E1",
"I c #0289E1",
"U c #0389E1",
"Y c #FEFEFE",
"T c #FFFEFF",
/* pixels */
"                                ",
"                                ",
"                                ",
"          ooooooo@@oo           ",
"         oxNxxxxNNNxxo          ",
"        oxxxNxxnNNxxxNo         ",
"       oNxxnxxnnNNxxNxNo        ",
"      oxxx0000nn8800NNxNo       ",
"      oNx8NNxxy0NNxx0nxno       ",
"      oNxyxYox00xYox0nnno       ",
"      o008Noox00xoox3000o       ",
"      oNn0Noon00Noon0xNNo       ",
"      oxn0NxxN88xxxN0xxxo       ",
"      oxxx8u55xn0008nnxNo       ",
"      oNxNxxxNMNMnxNnNNNo       ",
"      oxNNxxNFCCCAnNNNNNo       ",
"      oNNNNxCCCZACCxxNNmo       ",
"      oNxNxNSCCZAAFxxmnmo       ",
"      oNNxNxNCZZZZNNNNxxo       ",
"      oGKNxmmmNNxxnnNNKUo       ",
"      oNNHNNNNNNxxxNxKxNo       ",
"      oNxHNNNNxNxxxxxKNN@       ",
"      oxNHNNxNmmxxNNxKxx@       ",
"      oNNGNxxxmxNNxxxKNN@       ",
"      oNxUxNNxxNNNxNxKxxo       ",
"      oNnUxNxxNxxNNNxKNN@       ",
"      oxxUxxNNxNxNNNxKxx@       ",
"   uyuoNxUNxNNNxxxNNNKxnouuu    ",
"0yyyypoGG111::JUUUGGGUGGoq%yuyy0",
"y=yy&yoG1HllJ:UJGGGUUUUUoyyyu=yy",
"y5y=uuoGUGllGGUUUfffppGHoyy0y%%0",
"pyyuuu@GHpllpUUUUpYfppUUoy%0pyyy"
};
