/* XPM */
static char *result[] = {
/* columns rows colors chars-per-pixel */
"32 32 44 1 ",
"  c black",
". c #010000",
"X c #000100",
"o c #010100",
"O c #000001",
"+ c #010001",
"@ c #000101",
"# c #010101",
"$ c #2D2828",
"% c #2C2928",
"& c #2C2829",
"* c #2D2829",
"= c #605E5E",
"- c #615E5E",
"; c #605F5E",
": c #615F5E",
"> c #605E5F",
", c #615E5F",
"< c #605F5F",
"1 c #615F5F",
"2 c #D4860A",
"3 c #D5860A",
"4 c #D4870A",
"5 c #D5870A",
"6 c #D4860B",
"7 c #D5860B",
"8 c #D4870B",
"9 c #D5870B",
"0 c #484CF0",
"q c #494CF0",
"w c #484DF0",
"e c #494DF0",
"r c #484CF1",
"t c #494CF1",
"y c #484DF1",
"u c #0288E0",
"i c #0388E0",
"p c #0289E0",
"a c #0389E0",
"s c #0288E1",
"d c #0388E1",
"f c #0289E1",
"g c #0389E1",
"h c None",
/* pixels */
"hhhhhhhhhh  o@OO.X#X#hhhhhhhhhhh",
"hhhhhhhhhO94634243785Ohhhhhhhhhh",
"hhhhhhhh.8897579296297Ohhhhhhhhh",
"hhhhhhh.843644853487394@hhhhhhhh",
"hhhhhh@95337976746422576 hhhhhhh",
"hhhhhh#45459844476698465 hhhhhhh",
"hhhhhho53847387446455539 hhhhhhh",
"hhhhhh.68786884394299895+hhhhhhh",
"hhhhhhX82372584362873344+hhhhhhh",
"hhhhhhO67737579973263996 hhhhhhh",
"hhhhhh 29578372636656563+hhhhhhh",
"hhhhhh 66384653436499995.hhhhhhh",
"hhhhhh#98946935784868225 hhhhhhh",
"hhhhhh@43623729327345883+hhhhhhh",
"hhhhhh.47864355995948867 hhhhhhh",
"hhhhhhX39249986486876589@hhhhhhh",
"hhhhhhO75765966469428424@hhhhhhh",
"hhhhhhOua8979427899245fuOhhhhhhh",
"hhhhhh@75d73767569987s76ohhhhhhh",
"hhhhhh#57i38732259889i25ohhhhhhh",
"hhhhhho46i66894975539i62ohhhhhhh",
"hhhhhhO48d94324578798d76ohhhhhhh",
"hhhhhh#28d24888498468s24@hhhhhhh",
"hhhhhho59p88737294879d85Xhhhhhhh",
"hhhhhhO25g92954326554s46@hhhhhhh",
"hhhhhh@45a56363863376f87Xhhhhhhh",
"hhhhhhXpsafsiufiddfppfdf hhhhhhh",
"hhhhhh@ugaiupisfduuddaaiohhhhhhh",
"hhhhhh+usuiuddiugq0e0isuXhhhhhhh",
"hhh<&:@ifpfppsasftyywadp+1:<>hhh",
"h-1:,1ofifpagiuagywwtips.<1$>>%h",
"1*=1$;Ogdauuuuigfswrpdsu.,*,;:;,"
};
