/* XPM */
static char *_c61f74532644486f5511633c076590are8cIlylqEnZhfH2[] = {
/* columns rows colors chars-per-pixel */
"32 32 74 1 ",
"  c None",
". c black",
"X c #010000",
"o c #000100",
"O c #010100",
"+ c #000001",
"@ c #010001",
"# c #000101",
"$ c #010101",
"% c #2C2828",
"& c #2D2828",
"* c #2D2928",
"= c #2C2829",
"- c #2D2829",
"; c #2D2929",
": c #4C4A4C",
"> c #4D4A4C",
", c #4C4B4C",
"< c #4D4B4C",
"1 c gray37",
"2 c #5F5E5E",
"3 c #5E5F5E",
"4 c #5F5F5E",
"5 c #5E5E5F",
"6 c #5F5E5F",
"7 c #5E5F5F",
"8 c #5F5F5F",
"9 c #605E5E",
"0 c #615E5E",
"q c #605F5E",
"w c #615F5E",
"e c #605E5F",
"r c #615E5F",
"t c #605F5F",
"y c #615F5F",
"u c #64645E",
"i c #65645E",
"p c #64655E",
"a c #65655E",
"s c #64645F",
"d c #65645F",
"f c #64655F",
"g c #65655F",
"h c #FE0000",
"j c #FE0100",
"k c #FF0001",
"l c #FE0101",
"z c #D4860A",
"x c #D5860A",
"c c #D4870A",
"v c #D5870A",
"b c #D4860B",
"n c #D5860B",
"m c #D4870B",
"M c #D5870B",
"N c #D83284",
"B c #D93284",
"V c #D83384",
"C c #D93384",
"Z c #D83285",
"A c #D93285",
"S c #D83385",
"D c #D93385",
"F c #0288E0",
"G c #0388E0",
"H c #0289E0",
"J c #0389E0",
"K c #0288E1",
"L c #0388E1",
"P c #0289E1",
"I c #0389E1",
"U c #FEFFFE",
"Y c #FEFFFF",
"T c white",
/* pixels */
"          ooooooooooo           ",
"         ocMnnnnnnnnno          ",
"        onncnnnnnnnncno         ",
"       occnnncccccccnnno        ",
"      onnmmnnnbbccnncncno       ",
"      onbb3333bn6333mmcno       ",
"      onn3cnbm63nnnn3ccco       ",
"      onn3cYoc63nYon3ncco       ",
"      o336boone3noon3333@       ",
"      onn6noon66coon3nnc@       ",
"      onn3nbnn33ccnn3nnc@       ",
"      onnb3333nb3333nncno       ",
"      onnnccncnbnncccnnc@       ",
"      onnncccDCCDCcccnnb@       ",
"      onnccnCCCNCCCncncno       ",
"      onbcnnCCCCCCDnnncno       ",
"      onbnccnVBBCCbncccno       ",
"      @LHnccbbncnnbbzbHHo       ",
"      onnHzcbmncbbnbmHcco       ",
"      onnJvmmmcnbnbnnHcvo       ",
"      onnHnnncnnncvcnHmmo       ",
"      onnHcccncnmnncnHmvo       ",
"      onnJcncnnnnnncnHnvo       ",
"      occJncccvbccvvnHnno       ",
"      onbIbncbnbnbbbnHnno       ",
"      onnInnnnnbbnnnnKnno       ",
"      oJI,<<,:HHHHKGHKJJ@       ",
"      oJ,IhhI:IIIHGIKGJJ@       ",
"      oJHHhhKKHGGguggdKKo       ",
"   e;eoJHdhhgKHGKdYgggKKoe00y   ",
" ey6yyoJGddgdKIKGdudggJJ@ee&ey; ",
"e;yy-y$LGHHGGHKHHKHGJIJJ@0*eeeyy"
};
