/* XPM */
static char *fea72162bdf245e7e9f2b235b7b239327HfSOydSH1Ctrs4T[] = {
/* columns rows colors chars-per-pixel */
"32 32 17 1 ",
"  c None",
". c #260440",
"X c #270440",
"o c #260540",
"O c #270540",
"+ c #260441",
"@ c #270441",
"# c #260541",
"$ c #270541",
"% c #54008E",
"& c #55008E",
"* c #54018E",
"= c #55018E",
"- c #54008F",
"; c #55008F",
": c #54018F",
"> c #55018F",
/* pixels */
"        =$X$O$oO>O>>>O>>        ",
"        $X$Oo>>oOOoOOOO>        ",
"        Xoo$oOO>=OoOO>>$        ",
"        >ooO>o>OOOo>OOO$        ",
"        OO*O$$oXOOXXXoX$        ",
"        O$O$$XXXOOXXXX$$        ",
"oXooXXoo                XoooOOoo",
"oXoo>XXX                oX@o>Oo>",
">X>>O>oX                o>OXXXXX",
"oXooOOXX                o>oXXXXo",
">XXX>oOo                >OX>=$X$",
"$X>Xo>O>                oOXO$$Xo",
">oX$=Oo>                ooXX>o>>",
">X$$OOXo                OO>Ooo>o",
">XXXooXX                XoOo>OoO",
"ooXoo>XX                XXOoOOo>",
">O>>XX>X                oX>o>>o@",
"oOOoXOO>                XXoooooo",
">:>o$$OX                >:oX>oX>",
"::OOo>Oo                >>ooX@o>",
":=oX$OOo                o>$$oooX",
"%ooo$X>o                o:$XX>oX",
">Oo>X=oo                oXXXXXOo",
"oXOo>>X$                o$Xo>XXX",
">>X>>XXX                oX$=OOOo",
"ooXoXX$X                XX$$OOoo",
"        OO$$$$OOXXOOXoOo        ",
"        $$=XOOOOXX>o>X>O        ",
"        oXXXXXXo>oOoo>oO        ",
"        Oo>X$o$$o>$Xo>OO        ",
"        OoO$>oXXoOOOX>$X        ",
"        $$OXoooOoO=Ooo>X        "
};
