/* XPM */
static char *_a7d65a691194a5c9d008683700ad354Jptd1vWz41Yroktn[] = {
/* columns rows colors chars-per-pixel */
"32 32 17 1 ",
"  c None",
". c #260440",
"X c #270440",
"o c #260540",
"O c #270540",
"+ c #260441",
"@ c #270441",
"# c #260541",
"$ c #270541",
"% c #54008E",
"& c #55008E",
"* c #54018E",
"= c #55018E",
"- c #54008F",
"; c #55008F",
": c #54018F",
"> c #55018F",
/* pixels */
"        %OOOOOOO:O:%;O--        ",
"        OOOOO%;OOOOOOOO;        ",
"        OOOOOO+;-OOOO%%O        ",
"        %oOO;O%OOOO-OOOO        ",
"        OO%OOOOOOOOOOOoo        ",
"        OOOOOOOOOOOOOOOo        ",
"OOOO+OOO=&;;%%&%:;-%;%-%OOOOOOOO",
"OOOO%OOO=;;O%%&&+;O%;--%OOOO;OO%",
"-O:%O%OO;O;;O%O&O%OO;%=;O;OO+OO+",
"OOOOOOOO;OO%O;;;%=O&%==;O;OO+OO+",
"-OOO%OX+;;%%%%&&%==&;O;%%OO;%XO+",
"OO-OO%XO;%%;&&&&O%O=;;;;OOOOOOO+",
"OOOO-OXO%;O;=O&&%%%=%;;;+OOO%O;O",
"-OOOOOo+;%;;;==;=%;=%%;;OO:+OO-O",
"-ooOOOO+%%O;OOX=OO%;;%%;OOOO:OOO",
"ooOoO:+O;%%;;=;=&;=;%O%;+OOOOOOO",
"%O;%OO;O&&==;;O%=O%%====OO%o%%OO",
"OOOOOO%O%&O=;%%;&&%=O;=;OOOOOOOO",
";%OOOOOO%;==%;;%=;;;O;%=O%OO%OO%",
"%OOOO%%O%&;;%;%OO%===;==O&OOOOO%",
"O%OOOOOO;O=OO;;%O;&&%=;;OOOOXOOO",
"OOOOOO%O;;%O;OOO=&;%;%%%+:OOO%OO",
";OO;O%OO;%=;;%%;=%%;O&==OOOOOOXO",
"OOOO%=OO;O%;;%;O&&%=;;O%O+OO;OOO",
":;+;;OOO;;%%%%OO;;%%%%--O+O%OOOO",
"OOOOOO+O::%%%;%;;;%%%--:O+OOOOOO",
"        +OO+OOOOOOOOoOOO        ",
"        +O;OOOOOOO%o%o-O        ",
"        OO+OOOOO;OOOO-OO        ",
"        OO;OOOOOO%OOO-OO        ",
"        OOO+;OOOOOOOO-OO        ",
"        $OOOOOOOOO%OOO;O        "
};
