/* XPM */
static char *_3b8c5fbcf6c4523aefb8745de8c5465OcqvEea205RYGiJ9[] = {
/* columns rows colors chars-per-pixel */
"32 32 4 1 ",
"  c black",
". c #010100",
"X c #010001",
"o c #000101",
/* pixels */
"                                ",
"              o    X X  X     X ",
"              o     o    X      ",
"        o     o       o         ",
"          o               X    o",
"        o      o         X  o X ",
"          o  o.        o        ",
"                           X    ",
"    X       .     .      X     X",
"      X        . .  .   XX     X",
"           X  . .o    . X X   ..",
"        X                     . ",
"              .                 ",
"                   .     .      ",
"                    .           ",
"                o   .           ",
"     o . X   .         . . o    ",
"         Xo    .  .             ",
"               .    .  X       o",
"         X           .    . .   ",
"    .  .           o        .  o",
"            .                   ",
"                       o        ",
"    .         .  .      o   .   ",
"  o o X o                       ",
"               o             o  ",
"      X  .                o    X",
" o               ..             ",
"   .     .   X       .   X      ",
"                        X       ",
"      X                         ",
" .       X     o          X     "
};
