/* XPM */
static char *d2254da0970b4759d74cf8fc5f0ab6d58fu5cslEEwpBWyYH[] = {
/* columns rows colors chars-per-pixel */
"32 32 6 1 ",
"  c #CBCCCA",
". c #CACDCA",
"X c #CBCDCA",
"o c #CACCCB",
"O c #CBCCCB",
"+ c #CACDCB",
/* pixels */
"OOOOOOOOOOOOOOO.OO.OOOO.OO.OOOOO",
"OOOOOOOOOOOOOOO.OO.OOOOO.O.OOOOO",
"OOOOOOOOOOOOOOOO..O.OOOOOO.OOOOO",
"OOOOOOOOOOOOOOOOo...OOOOOOOOOOOO",
"OOOOOOOOOOOOOOOOOOOOOOOOO.O.OOO.",
"OOOOOOOOOOOOOOOOOOOOO.OOOOOOOOOO",
"OOOOOOOOOOOOOOOOOO.OOOOOOOOO.OOO",
"OOOOOOOOOOOOOOOOOOOOOOOOO.OO.OOO",
"OOO.OO...X     OOOOOOOOOOOOOOOOO",
"OO.OOOO..X   XXOOO.O.OOOOOOOOOOO",
"OOOOOOOOOOOO X...OO.OOOOOOOOOOOO",
".OO.OOOOOOOO...OO.OOOO..OOOO.OOO",
"..OOOOOOOOOOOOOO..O.OOOOOOOOOOO.",
"..OoOOOOOOOOOOOOOOOOOOOOOOOOOOO.",
".++oOOOOOOOOOOOOOOO.O.OOO.OOO.O.",
".++oOOOOOOOOOOOO..OOO.OO.OOOOOOO",
"OOOOOOOO....OOOOOOOOOOOOOOOO.OOO",
"OOO.OOOOOO..OOOOOOOOOOO.O.OOOOOO",
"OOOOOO.OOOOOOOOOOOOOOOOOOOO.OOOO",
"OOOOOOOOOOOOOOOOOO.OO.O.OOOOOOOO",
"O.OOOOOOOOOOOOOOOOOOOOOOOOO....O",
"OOOOOOOOOOOOOOOOO.OOOOO..O.OOOOO",
"O.OOOOO.OOOOOOOO.OOOOOO..OOOOOOO",
"OOOO.OOOOOOOOOOO..OOOOOOOOO.OOOO",
"OOOOOOOO XOOOOOOOOOOXOOOOOOOOOOO",
"O.OOOO.OOOOOOOOOOOOOX+OX.OOOOOOO",
"OOOO.OOOoOXoOOOOOOOOOO+X..OOOOOO",
"OOOO.OO.OOO OOOOOOOO OOXO.OO.OOO",
".O+..OOOOo  OOO+OOOOOXOOO++.O.OO",
"OOO.OOOOOOOoO  +OO++OOOOO.O..OOO",
"OO.OO.OO O OOOOOOOOOOO++.+.OOOOO",
"OO...OOOOoOOO+XOOOOOOOOX++OOO..."
};
