/* XPM */
static char *_2f1eeda7c464d51add8f65e4443b4f8ltRbz1VoIxwwZ6Fx[] = {
/* columns rows colors chars-per-pixel */
"32 32 7 1 ",
"  c #649460",
". c #659460",
"X c #649560",
"o c #659560",
"O c #649461",
"+ c #649561",
"@ c #659561",
/* pixels */
"...++X......+.........+.++......",
"....+X..........................",
".......+....+  ......+........+.",
"......X ....  XX..............+.",
"...............+..............+.",
"..+...... .........+......@+....",
"......... OO++.+....+...@.++....",
"..+........O++.+.......+...+..+.",
".+.+..+.....+.....+....+...+++++",
"......+..+.+.........+......++  ",
" +..+...+.+.@.....+.+...+.....XX",
" ...+... .+.......+..+..+..+...X",
"  ......OO......................",
". ......  .............+........",
"........@  .....................",
"........  ......................",
"....+.....................   ...",
"..++..+..++.......+.....+. + X..",
".........+.......++....+...+....",
"+...+...++.+..++.+...+..+..+....",
"+   ....  ..+..+.....+....+.....",
"    .+..  ..+.++................",
".. X...........+.++.............",
"X.XX........+...+++.............",
"............+.....++.+...+......",
"............+......+.++.........",
"...........+.......+.......++.++",
"............+......+.......++..+",
"..+.......++.......+........ XX.",
"+.+........+......+......... X..",
"..++...........+................",
"..+............................."
};
