/* XPM */
static char *_8740f55f6a84e74e65cfdf9a61411fdAiwq5GbmPme093P4[] = {
/* columns rows colors chars-per-pixel */
"48 64 14 1 ",
"  c None",
". c #343434",
"X c #353434",
"o c #343534",
"O c #343435",
"+ c #353435",
"@ c #3E3D3C",
"# c #3E3C3D",
"$ c #3E3D3D",
"% c #3F3D3D",
"& c #787373",
"* c #9C9494",
"= c #9D9494",
"- c #9D9594",
/* pixels */
"            ......+                             ",
"          ..........+                           ",
"        ...............                         ",
"       .................                        ",
"      ............+..+...                       ",
"     ........----....+....                      ",
"     .......==-=--........                      ",
"     .......====--........                      ",
"    ........====--.........                     ",
"    ........====--.........                     ",
"    .........===-......+...                     ",
"    ......&&&&&&&&&&.+.....                     ",
"    .................+o....                     ",
"...................o.....o.....                 ",
".....................+...o.....                 ",
"......................o........                 ",
".......%$$$$$$$$$$$$$$$$.......                 ",
"..++...%$$$$$$$$$$$$$$$$.......                 ",
"....OO.%$$$$$$$$$$$$$$$$..XX...                 ",
"....OOO%$$$$$$$$$$$$$$$$...+...                 ",
"....OOo@$$$$$###$$$$$$$$.......                 ",
"....OOO@$$$$$###$$$$$$$$+......                 ",
".O...oO@$$$$$$%$$$$$$$$$.......                 ",
".o...OO@$$$$$$$$@$$$$$$$.......                 ",
".......%%%%%$$$$@@%%$$$$.......                 ",
".......@%%$$$$$$@@%%$%$$.......                 ",
".......%$$$$%%@@$$%%%%@@OO.....                 ",
".......%$$$$%@@@$$$$%@@@OO.....                 ",
"........OOo.....OO......OO..o..                 ",
"........OO......OO.......o..o..                 ",
"........Oo......Ooo............                 ",
"........Oo......Oo.............                 ",
"                                                ",
"                                                ",
"                                                ",
"                                                ",
"                                                ",
"                                                ",
"                                                ",
"                                                ",
"                                                ",
"                                                ",
"                                                ",
"                                                ",
"                                                ",
"                                                ",
"                                                ",
"                                                ",
"                                                ",
"                                                ",
"                                                ",
"                                                ",
"                                                ",
"                                                ",
"                                                ",
"                                                ",
"                                                ",
"                                                ",
"                                                ",
"                                                ",
"                                                ",
"                                                ",
"                                                ",
"                                                "
};
